<?xml version="1.0" encoding="UTF-8" standalone="no"?>
<svg
   xmlns:dc="http://purl.org/dc/elements/1.1/"
   xmlns:cc="http://creativecommons.org/ns#"
   xmlns:rdf="http://www.w3.org/1999/02/22-rdf-syntax-ns#"
   xmlns:svg="http://www.w3.org/2000/svg"
   xmlns="http://www.w3.org/2000/svg"
   viewBox="0 0 1617.4532 1213.0907"
   height="1213.0907"
   width="1617.4532"
   xml:space="preserve"
   id="svg2"
   version="1.1"><metadata
     id="metadata8"><rdf:RDF><cc:Work
         rdf:about=""><dc:format>image/svg+xml</dc:format><dc:type
           rdf:resource="http://purl.org/dc/dcmitype/StillImage" /></cc:Work></rdf:RDF></metadata><defs
     id="defs6"><clipPath
       id="clipPath18"
       clipPathUnits="userSpaceOnUse"><path
         id="path16"
         d="M 0,909.818 H 1213.091 V 0 H 0 Z" /></clipPath><clipPath
       id="clipPath26"
       clipPathUnits="userSpaceOnUse"><path
         id="path24"
         d="M 354.852,488.6 H 580.238 V 444.919 H 354.852 Z" /></clipPath></defs><g
     transform="matrix(1.3333333,0,0,-1.3333333,0,1213.0907)"
     id="g10"><g
       id="g12"><g
         clip-path="url(#clipPath18)"
         id="g14"><g
           id="g20"><g
             id="g22" /><g
             id="g34"><g
               style="opacity:0.5"
               id="g32"
               clip-path="url(#clipPath26)"><g
                 id="g30"
                 transform="translate(580.1163,447.956)"><path
                   id="path28"
                   style="fill:#000000;fill-opacity:1;fill-rule:nonzero;stroke:none"
                   d="m 0,0 -15.978,39.064 c -0.162,0.365 -0.395,0.658 -0.698,0.881 -0.304,0.222 -0.659,0.334 -1.063,0.334 -0.892,0 -1.499,-0.405 -1.823,-1.215 L -35.6,-0.182 c -0.041,-0.122 -0.061,-0.303 -0.061,-0.547 v -0.182 c 0.04,-0.485 0.202,-0.871 0.486,-1.154 0.283,-0.284 0.708,-0.425 1.276,-0.425 0.769,0 1.316,0.404 1.64,1.215 l 1.301,3.218 0.359,0.885 4.251,10.599 h -0.018 l 8.384,20.777 8.505,-20.777 H -9.48 l 4.252,-10.396 1.765,-4.306 c 0.162,-0.365 0.395,-0.66 0.699,-0.881 0.304,-0.223 0.658,-0.334 1.063,-0.334 0.486,0 0.911,0.161 1.276,0.485 0.364,0.324 0.547,0.749 0.547,1.276 C 0.122,-0.567 0.081,-0.324 0,0 m -52.914,40.097 c -0.527,0 -0.982,-0.182 -1.367,-0.547 -0.386,-0.364 -0.577,-0.811 -0.577,-1.337 V 21.082 h -24.665 v 17.131 c 0,0.526 -0.182,0.973 -0.547,1.337 -0.365,0.365 -0.81,0.547 -1.336,0.547 -0.568,0 -1.033,-0.173 -1.398,-0.516 -0.364,-0.345 -0.547,-0.801 -0.547,-1.368 v -38.76 c 0,-0.567 0.172,-1.022 0.517,-1.366 0.344,-0.345 0.799,-0.517 1.367,-0.517 0.526,0 0.972,0.183 1.337,0.547 0.364,0.364 0.566,0.81 0.607,1.336 v 18.105 h 24.665 V -0.547 c 0,-0.526 0.182,-0.972 0.547,-1.336 0.364,-0.364 0.81,-0.547 1.336,-0.547 0.526,0 0.972,0.172 1.337,0.517 0.365,0.344 0.567,0.799 0.607,1.366 v 38.76 c 0,0.567 -0.173,1.023 -0.516,1.368 -0.345,0.343 -0.8,0.516 -1.367,0.516 M -121.29,34.75 c 2.652,1.54 5.62,2.309 8.9,2.309 3.847,0 7.391,-1.073 10.632,-3.22 0.323,-0.203 0.647,-0.303 0.972,-0.303 0.567,0 1.033,0.222 1.397,0.668 0.283,0.445 0.426,0.85 0.426,1.215 0,0.647 -0.304,1.154 -0.912,1.519 -1.742,1.174 -3.696,2.085 -5.862,2.733 -2.167,0.648 -4.385,0.973 -6.653,0.973 -3.928,0 -7.513,-0.942 -10.753,-2.826 -3.24,-1.883 -5.812,-4.495 -7.715,-7.837 -1.904,-3.341 -2.855,-7.057 -2.855,-11.148 0,-4.251 0.961,-8.04 2.885,-11.36 1.924,-3.322 4.516,-5.904 7.777,-7.746 3.259,-1.843 6.813,-2.764 10.661,-2.764 2.187,0 4.435,0.354 6.744,1.063 2.309,0.708 4.252,1.589 5.832,2.643 0.566,0.323 0.851,0.81 0.851,1.458 0,0.445 -0.143,0.829 -0.426,1.154 -0.364,0.486 -0.83,0.729 -1.397,0.729 -0.364,0 -0.709,-0.102 -1.033,-0.304 -3.2,-2.106 -6.724,-3.159 -10.571,-3.159 -3.24,0 -6.187,0.76 -8.839,2.278 -2.653,1.519 -4.749,3.665 -6.288,6.44 -1.539,2.775 -2.308,5.964 -2.308,9.568 0,3.524 0.759,6.673 2.278,9.448 1.519,2.773 3.604,4.93 6.257,6.469 m -51.183,-21.323 8.384,20.777 8.505,-20.777 z m 10.389,25.637 c -0.163,0.365 -0.395,0.658 -0.699,0.881 -0.303,0.222 -0.658,0.334 -1.063,0.334 -0.891,0 -1.499,-0.405 -1.822,-1.215 l -16.039,-39.246 c -0.041,-0.122 -0.061,-0.303 -0.061,-0.547 v -0.182 c 0.04,-0.485 0.203,-0.871 0.486,-1.154 0.283,-0.284 0.709,-0.425 1.276,-0.425 0.769,0 1.316,0.404 1.641,1.215 l 4.495,11.117 h 19.744 l 4.557,-11.117 c 0.161,-0.365 0.395,-0.66 0.698,-0.881 0.304,-0.223 0.658,-0.334 1.063,-0.334 0.487,0 0.912,0.161 1.276,0.485 0.365,0.324 0.547,0.749 0.547,1.276 0,0.162 -0.041,0.405 -0.121,0.729 z M -200.69,3.22 c -1.682,-1.377 -3.879,-2.066 -6.592,-2.066 h -14.094 v 16.525 h 13.973 c 2.713,0 4.93,-0.668 6.652,-2.005 1.721,-1.336 2.582,-3.423 2.582,-6.257 0,-2.755 -0.841,-4.82 -2.521,-6.197 m -20.686,33.292 h 13.547 c 2.349,0 4.182,-0.637 5.498,-1.913 1.316,-1.276 1.975,-3.028 1.975,-5.255 0,-2.552 -0.699,-4.517 -2.096,-5.893 -1.398,-1.377 -3.19,-2.086 -5.377,-2.126 h -13.547 z m 18.833,-16.342 c 1.943,0.769 3.441,2.005 4.495,3.706 1.053,1.701 1.58,3.624 1.58,5.771 0,3.24 -0.963,5.792 -2.886,7.655 -1.924,1.863 -4.587,2.795 -7.989,2.795 h -16.099 c -0.527,0 -0.962,-0.173 -1.306,-0.516 -0.345,-0.345 -0.517,-0.781 -0.517,-1.307 V -0.607 c 0,-0.527 0.172,-0.962 0.517,-1.306 0.344,-0.345 0.779,-0.517 1.306,-0.517 h 16.342 c 3.645,0 6.692,0.982 9.143,2.947 2.45,1.963 3.676,4.93 3.676,8.9 0,2.916 -0.77,5.286 -2.309,7.108 -1.539,1.823 -3.523,3.038 -5.953,3.645" /></g></g></g></g><g
           transform="translate(738.9752,558.4721)"
           id="g36"><path
             id="path38"
             style="fill:#000000;fill-opacity:1;fill-rule:nonzero;stroke:none"
             d="M 0,0 C -0.617,3.695 -7.537,11.016 -23.875,6.431 -46.82,0.618 -60.854,1.814 -74.836,3.38 c -29.653,3.322 -64.641,9.944 -80.492,9.894 -3.276,-0.082 -9.044,-0.383 -13.962,-1.331 -0.001,0 -0.001,-10e-4 -0.002,-10e-4 -0.482,-0.092 -0.955,-0.192 -1.417,-0.298 -0.025,-0.006 -0.051,-0.012 -0.076,-0.018 -0.453,-0.104 -0.895,-0.215 -1.323,-0.333 -0.023,-0.006 -0.045,-0.012 -0.067,-0.019 -0.865,-0.24 -1.67,-0.508 -2.392,-0.807 -0.019,-0.008 -0.038,-0.015 -0.058,-0.023 -0.337,-0.142 -0.652,-0.292 -0.951,-0.447 -0.042,-0.022 -0.084,-0.044 -0.125,-0.066 -0.282,-0.153 -0.543,-0.312 -0.783,-0.478 -0.04,-0.028 -0.078,-0.056 -0.117,-0.084 -0.232,-0.17 -0.446,-0.346 -0.631,-0.53 -0.023,-0.024 -0.043,-0.048 -0.066,-0.072 -0.187,-0.196 -0.353,-0.397 -0.481,-0.61 0,0 0,-10e-4 -0.001,-10e-4 -0.131,-0.219 -0.224,-0.429 -0.298,-0.634 -0.016,-0.044 -0.033,-0.087 -0.047,-0.13 -0.06,-0.195 -0.098,-0.383 -0.109,-0.561 -0.002,-0.036 0.001,-0.069 0.001,-0.104 -0.001,-0.157 0.015,-0.307 0.05,-0.448 0.008,-0.03 0.011,-0.061 0.02,-0.091 0.047,-0.15 0.119,-0.289 0.207,-0.419 0.025,-0.038 0.052,-0.073 0.081,-0.109 0.098,-0.122 0.207,-0.238 0.341,-0.338 0.006,-0.004 0.008,-0.008 0.013,-0.012 10e-4,0 0.002,-10e-4 0.003,-0.002 0.003,-0.002 0.005,-0.003 0.007,-0.005 5.321,-3.821 11.294,-7.466 17.735,-11.428 25.167,-15.48 53.693,-33.026 52.973,-62.682 -0.145,-5.979 -2.512,-12.731 -6.395,-20.049 -7.792,-0.304 -15.915,-0.334 -24.556,-0.046 -36.392,1.21 -52.946,-3.711 -57.277,-4.346 -10.383,-1.523 -11.807,-7.848 -5.204,-7.041 6.603,0.808 26.213,3.689 58.182,2.432 7.794,-0.307 15.509,-0.489 23.23,-0.48 -8.104,-12.474 -19.405,-26.202 -31.049,-40.345 -2.738,-3.327 -11.479,-14.004 -11.479,-14.004 -56.538,-63.318 -54.89,-107.57 -55.104,-117.103 -0.133,-5.921 1.948,-9.954 6.306,-13.264 1.946,-1.118 3.446,-0.221 3.502,2.072 -0.05,50.777 27.224,84.141 56.1,119.462 0,0 8.723,10.656 11.449,13.968 14.735,17.897 28.254,34.326 36.825,49.562 18.689,0.775 37.759,2.963 58.389,7.604 2.219,0.498 -2.713,11.126 -6.512,10.269 -15.793,-3.558 -30.826,-6.235 -46.868,-7.706 2.683,6.434 4.266,12.654 4.412,18.676 0.838,34.508 -32.528,56.65 -60.652,72.419 22.929,-3.091 46.794,-10.375 66.235,-16.021 20.238,-5.877 40.911,-8.032 61.776,-3.642 5.782,1.217 11.763,2.784 16.88,5.831 C -2.721,-7.05 0.566,-3.394 0,0" /></g><g
           transform="translate(868.6783,505.6054)"
           id="g40"><path
             id="path42"
             style="fill:#000000;fill-opacity:1;fill-rule:nonzero;stroke:none"
             d="m 0,0 c -6.912,1.951 -9.247,-0.394 -9.688,-1.567 -0.798,-2.123 1.782,-3.223 2.751,-4.528 2.939,-3.959 0.746,-6.144 0.147,-9.366 -0.524,-2.825 4.445,-7.636 6.962,-4.481 C 5.399,-13.39 7.304,-8.88 7.718,-6.475 8.051,-4.539 6.913,-1.95 0,0 m -15.271,-32.743 c -1.507,1.344 -3.375,0.831 -7.164,-0.683 -5.123,-2.047 -26.727,-11.992 -40.903,-14.083 -2.952,-0.435 -4.631,-0.094 -2.93,3.006 0,0 1.255,2.325 2.801,5.092 3.727,6.673 0.053,9.079 -6.029,9.079 H -88.46 c -2.474,0 -6.315,-1.408 -8.446,-2.669 -6.035,-3.571 -16.244,-11.062 -24.908,-14.412 -7.997,-3.092 -12.422,1.714 -11.97,5.28 0.408,3.223 3.362,6.609 2.768,8.18 -2.216,5.87 -12.058,7.229 -18.019,5.349 -0.129,-0.041 -0.267,-0.125 -0.408,-0.232 -8.988,-7.083 -18.8,-15.086 -26.356,-17.222 -1.316,4.442 3.598,8.773 2.611,9.76 -0.987,0.987 -6.724,4.388 -6.724,4.388 l -9.129,-3.536 c 0,0 -4.832,-10.585 -1.893,-14.724 2.248,-3.166 9.871,-7.567 19.413,-5.429 4.802,1.077 13.267,4.792 21.318,8.982 3.289,-5.775 10.345,-10.771 20.655,-10.724 9.844,0.044 20.364,6.518 20.364,6.518 3.737,2.187 15.878,10.493 18.886,11.29 3.008,0.797 7.112,0.742 7.112,0.742 -1.979,-3.201 -4.643,-9.296 -1.483,-13.761 2.593,-3.664 7.78,-5.422 15.589,-4.383 18.198,2.421 40.284,13.453 42.329,14.197 2.046,0.744 2.281,0.148 2.031,-1.159 -0.376,-1.976 -0.379,-6.275 0.36,-8.249 1.163,-3.105 3.572,-3.613 4.75,-4.374 1.444,-0.932 1.257,1.322 9.022,14.471 2.832,4.796 -3.177,7.962 -4.683,9.306" /></g><g
           transform="translate(894.6998,455.2455)"
           id="g44"><path
             id="path46"
             style="fill:#000000;fill-opacity:1;fill-rule:nonzero;stroke:none"
             d="m 0,0 c 0.27,0.471 3.183,4.992 6.643,9.592 1.855,2.466 4.586,5.335 5.161,5.801 0.575,0.466 0.715,0.571 1.018,0.709 6.426,2.903 12.332,2.071 13.057,1.954 C 24.798,16.682 23.607,14.788 22.453,12.354 16.412,7.358 6.512,1.732 0,0 M 125.979,-2.768 C 106.203,4.677 93.369,3.419 80.688,2.52 72.664,1.952 57.397,-1.315 51.479,-1.018 44.25,-0.656 40.886,1.648 42.011,4.844 c 0.717,2.036 1.906,5.333 2.818,7.808 0.428,1.162 0.645,2.126 0.097,3.29 -0.37,0.787 -1.446,1.804 -2.926,2.762 l 0.021,0.037 c -8.73,5.67 -29.043,6.707 -42.268,1.134 -6.641,-2.798 -13.14,-8.365 -15.489,-13.424 -2.351,-5.059 -3.518,-9.757 -0.059,-12.207 2.761,-1.95 8.138,-3.344 15.468,-1.544 9.05,2.22 14.671,6.241 18.417,8.805 0.401,0.263 0.781,0.492 1.17,0.736 -0.024,-7.792 11.168,-12.095 19.935,-12.54 15.528,-0.789 28.055,3.907 41.326,5.368 11.79,1.285 24.939,1.921 39.713,-2.903 3.123,-1.019 9.331,3.715 5.745,5.066" /></g></g></g></g></svg>